<svg xmlns="http://www.w3.org/2000/svg" width="28" height="24" viewBox="0 0 28 24">
  <g id="back" transform="translate(0 -3.679)">
    <path id="Path_27" data-name="Path 27" d="M27.955,22.424c-1.07-4.659-4.4-11.15-14.469-12.522V5.794A2.117,2.117,0,0,0,12.2,3.839,2.039,2.039,0,0,0,9.946,4.3L.8,13.695a2.857,2.857,0,0,0,0,3.968l9.145,9.393a2.04,2.04,0,0,0,2.258.463,2.118,2.118,0,0,0,1.282-1.955V21.589c3.436,0,8.389.467,11.913,2.708a1.669,1.669,0,0,0,1.892-.063A1.756,1.756,0,0,0,27.955,22.424Z" transform="translate(0 0)"/>
  </g>
</svg>
