<svg xmlns="http://www.w3.org/2000/svg" width="18.619" height="24" viewBox="0 0 18.619 24">
  <g id="bell" transform="translate(-51.493)">
    <g id="Group_23" data-name="Group 23" transform="translate(51.493)">
      <g id="Group_22" data-name="Group 22" transform="translate(0)">
        <path id="Path_21" data-name="Path 21" d="M175.208,404.514c0,.008,0,.017,0,.025a3.813,3.813,0,1,0,7.626,0c0-.008,0-.017,0-.025Z" transform="translate(-169.711 -384.352)" fill="#fff"/>
        <path id="Path_22" data-name="Path 22" d="M69.888,16.237l-2.561-3.475V8.427a6.172,6.172,0,0,0-5.245-5.91V1.182a1.283,1.283,0,0,0-2.559,0V2.517a6.172,6.172,0,0,0-5.245,5.91v4.335l-2.561,3.475a1.118,1.118,0,0,0-.074,1.231,1.312,1.312,0,0,0,1.144.636H68.819a1.312,1.312,0,0,0,1.144-.636A1.118,1.118,0,0,0,69.888,16.237Z" transform="translate(-51.493)" fill="#fff"/>
      </g>
    </g>
  </g>
</svg>
