<svg xmlns="http://www.w3.org/2000/svg" width="34" height="34" viewBox="0 0 34 34">
  <path id="calendar" d="M29.75,4.25H28.334V1.417A1.417,1.417,0,0,0,26.917,0H25.5a1.417,1.417,0,0,0-1.417,1.417V4.25H9.917V1.417A1.417,1.417,0,0,0,8.5,0H7.084A1.417,1.417,0,0,0,5.667,1.417V4.25H4.25A4.255,4.255,0,0,0,0,8.5V29.75A4.255,4.255,0,0,0,4.25,34h25.5A4.255,4.255,0,0,0,34,29.75V8.5a4.255,4.255,0,0,0-4.25-4.25Zm1.417,25.5a1.419,1.419,0,0,1-1.417,1.417H4.25A1.419,1.419,0,0,1,2.834,29.75V14.223H31.167Zm0,0" transform="translate(0)"/>
</svg>
