<svg xmlns="http://www.w3.org/2000/svg" width="26" height="24" viewBox="0 0 26 24">
  <g id="chat" transform="translate(0 -2.633)">
    <g id="Group_58" data-name="Group 58" transform="translate(0 2.633)">
      <path id="Path_26" data-name="Path 26" d="M21.256,2.633H4.749A4.851,4.851,0,0,0,0,7.581V17.653A4.848,4.848,0,0,0,4.749,22.6h10.5l2.216,3.32a1.566,1.566,0,0,0,2.627.008l2.345-3.474A4.92,4.92,0,0,0,26,17.652V7.581A4.847,4.847,0,0,0,21.256,2.633ZM8.764,14.226a1.61,1.61,0,1,1,1.548-1.61A1.579,1.579,0,0,1,8.764,14.226Zm4.239,0a1.61,1.61,0,1,1,1.548-1.61A1.579,1.579,0,0,1,13,14.226Zm4.239,0a1.61,1.61,0,1,1,1.548-1.61A1.58,1.58,0,0,1,17.241,14.226Z" transform="translate(0 -2.633)"/>
    </g>
  </g>
</svg>
