<svg id="Group_1" data-name="Group 1" xmlns="http://www.w3.org/2000/svg" width="59.084" height="44.381" viewBox="0 0 59.084 44.381">
  <path id="Path_1" data-name="Path 1" d="M17.016-165.2H8.968v19.7h8.048c6.557,0,10.834-2.645,10.834-9.849S23.573-165.2,17.016-165.2Zm.113,14.014h-.45v-8.33h.45c1.914,0,2.983.9,2.983,4.165S19.042-151.186,17.129-151.186Zm29.463.225H37.333v-1.717h6.585v-5.375H37.333v-1.688h9.2V-165.2H29.595v19.7h17ZM60.071-165.2l-1.126,4.784a49.038,49.038,0,0,0-1.294,7.345,49.041,49.041,0,0,0-1.294-7.345L55.231-165.2H47.323l6.247,19.7h8.1l6.247-19.7Z" transform="translate(-8.838 165.2)" fill="#fff"/>
  <path id="Path_2" data-name="Path 2" d="M27.024-167.243H18.809V-182H9.88v21.7H27.024ZM47.609-182H28.946v21.7h8.8v-6.634h7.006v-6.417H37.751v-2.015h9.859Zm21.019,0H48.788v6.944h5.456V-160.3h8.929v-14.757h5.456Z" transform="translate(-9.88 204.679)" fill="#04f299"/>
</svg>
