<svg id="out" xmlns="http://www.w3.org/2000/svg" width="24" height="24" viewBox="0 0 24 24">
  <path id="Path_28" data-name="Path 28" d="M138.485,0h-8.252a1.479,1.479,0,0,0,0,2.959h4.681l-7.808,7.808a1.479,1.479,0,1,0,2.092,2.092l7.808-7.808V9.732a1.479,1.479,0,0,0,2.959,0V1.479A1.481,1.481,0,0,0,138.485,0Z" transform="translate(-115.964 0)" fill="#04f299"/>
  <path id="Path_29" data-name="Path 29" d="M17,69.787H2.536V55.321h10.88l2.536-2.536H1.268A1.268,1.268,0,0,0,0,54.053v17a1.268,1.268,0,0,0,1.268,1.268h17a1.268,1.268,0,0,0,1.268-1.268V56.371L17,58.907Z" transform="translate(0 -48.323)" fill="#04f299"/>
</svg>
