<svg xmlns="http://www.w3.org/2000/svg" width="34" height="30.799" viewBox="0 0 34 30.799">
  <g id="vacancies" transform="translate(0 -0.001)">
    <path id="Path_3" data-name="Path 3" d="M326.427,220.539a9.386,9.386,0,0,1-8.236,1.865,12.515,12.515,0,0,1,2.059,6.892v3.734a5.63,5.63,0,0,1-1.352,3.663h8.5a3.667,3.667,0,0,0,3.663-3.663V229.3A10.6,10.6,0,0,0,326.427,220.539Zm0,0" transform="translate(-297.062 -205.893)"/>
    <path id="Path_4" data-name="Path 4" d="M55.6,14.8a7.4,7.4,0,1,0-7.4-7.4A7.406,7.406,0,0,0,55.6,14.8Zm0,0" transform="translate(-45.003)"/>
    <path id="Path_5" data-name="Path 5" d="M280.752,14.8a7.4,7.4,0,1,0-5.1-12.755,9.369,9.369,0,0,1,0,10.715,7.372,7.372,0,0,0,5.1,2.04Zm0,0" transform="translate(-257.351)"/>
    <path id="Path_6" data-name="Path 6" d="M16.562,220.539a9.373,9.373,0,0,1-11.928,0A10.6,10.6,0,0,0,0,229.3v3.734a3.667,3.667,0,0,0,3.663,3.664h13.87A3.667,3.667,0,0,0,21.2,233.03V229.3a10.594,10.594,0,0,0-4.634-8.757Zm0,0" transform="translate(0 -205.893)"/>
  </g>
</svg>
